<svg xmlns="http://www.w3.org/2000/svg" xmlns:xlink="http://www.w3.org/1999/xlink" width="566.93" height="156.93" viewBox="0 0 566.93 156.93">
  <defs>
    <linearGradient id="linear-gradient" y1="0.499" x2="1" y2="0.499" gradientUnits="objectBoundingBox">
      <stop offset="0.327" stop-color="#c8aed4"/>
      <stop offset="0.729" stop-color="#5c3d90"/>
    </linearGradient>
    <linearGradient id="linear-gradient-2" x1="47.502" y1="-8.006" x2="48.502" y2="-8.006" gradientUnits="objectBoundingBox">
      <stop offset="0" stop-color="#5c3d90"/>
      <stop offset="1" stop-color="#c8aed4"/>
    </linearGradient>
    <linearGradient id="linear-gradient-3" x1="-26.45" y1="-0.334" x2="-25.449" y2="-0.334" xlink:href="#linear-gradient-2"/>
    <linearGradient id="linear-gradient-4" y1="0.495" x2="1" y2="0.495" gradientUnits="objectBoundingBox">
      <stop offset="0" stop-color="#5c3d90"/>
      <stop offset="0.613" stop-color="#c8aed4"/>
    </linearGradient>
    <linearGradient id="linear-gradient-5" x1="0.741" y1="0.033" x2="0.083" y2="0.721" gradientUnits="objectBoundingBox">
      <stop offset="0.447" stop-color="#c8aed4"/>
      <stop offset="1" stop-color="#5c3d90"/>
    </linearGradient>
    <linearGradient id="linear-gradient-6" x1="0" y1="0.499" x2="1" y2="0.499" xlink:href="#linear-gradient-2"/>
    <linearGradient id="linear-gradient-7" x1="0.094" y1="0.419" x2="0.867" y2="0.57" gradientUnits="objectBoundingBox">
      <stop offset="0.225" stop-color="#c8aed4"/>
      <stop offset="1" stop-color="#5c3d90"/>
    </linearGradient>
    <clipPath id="clip-Plan_de_travail_1">
      <rect width="566.93" height="156.93"/>
    </clipPath>
  </defs>
  <g id="Plan_de_travail_1" data-name="Plan de travail 1" clip-path="url(#clip-Plan_de_travail_1)">
    <g id="Groupe_8" data-name="Groupe 8" transform="translate(8.11 -197.48)">
      <g id="Groupe_1" data-name="Groupe 1">
        <path id="Tracé_1" data-name="Tracé 1" d="M443.22,331.87c8.8-7.56,11.7-30.68,11.7-30.68s1.87-16.57,17.16-25.3a107.613,107.613,0,0,1,21.02-9.39s-27.78-.6-40.31,14.2c-2.47-21.72-5.85-23.85-5.85-23.85s14.93-26.93,39.33-29.89c-27.67-3.57-44.45,20.39-44.45,20.39s-13.54-20.69-30.49-28.86c0,0,46.85,41.08,30.11,115.61" fill="url(#linear-gradient)"/>
        <circle id="Ellipse_1" data-name="Ellipse 1" cx="8.11" cy="8.11" r="8.11" transform="translate(457.09 289.19)" fill="url(#linear-gradient-2)"/>
        <circle id="Ellipse_2" data-name="Ellipse 2" cx="7.08" cy="7.08" r="7.08" transform="translate(459.15 290.99)" fill="url(#linear-gradient-3)"/>
        <path id="Tracé_2" data-name="Tracé 2" d="M444.13,250.68s16.55-21.98,42.14-23.72c-27.16,8.81-29.02,17.97-38.96,30.7A47.1,47.1,0,0,0,444.13,250.68Z" fill="url(#linear-gradient-4)"/>
        <path id="Tracé_3" data-name="Tracé 3" d="M441.44,334.1s9.27-5.07,13.84-34.44c3.24-20.83,39.18-33.16,39.18-33.16s-34.92,1.86-42.91,29-.92,13.28-10.11,38.6" fill="url(#linear-gradient-5)"/>
        <path id="Tracé_4" data-name="Tracé 4" d="M441.44,333.65c16.74-74.53-30.11-115.17-30.11-115.17,15.18,10.07,24.71,29.4,24.71,29.4s17.59,32.67,12.41,62.35a176.109,176.109,0,0,1-7.01,23.86" fill="url(#linear-gradient-6)"/>
        <path id="Tracé_5" data-name="Tracé 5" d="M444.26,250.89a22.876,22.876,0,0,0-2.44-3.55c10.42-14.77,32.4-23.62,44.11-20.49C490.35,227.74,466.25,223.78,444.26,250.89Z" fill="url(#linear-gradient-7)"/>
      </g>
      <g id="Groupe_6" data-name="Groupe 6">
        <g id="Groupe_3" data-name="Groupe 3">
          <g id="Groupe_2" data-name="Groupe 2">
            <path id="Tracé_6" data-name="Tracé 6" d="M55.89,234.61H93.32v12.71H71.08v10.95H90.15v12.71H71.08v21.01H55.89Z" fill="#504f4f"/>
            <path id="Tracé_7" data-name="Tracé 7" d="M103.2,234.61h37.07v12.71H118.38v9h18.71v12.71H118.38v10.24h22.77v12.71H103.2Z" fill="#504f4f"/>
            <path id="Tracé_8" data-name="Tracé 8" d="M162.52,234.61h18.36l17.48,57.38H182.29l-6.53-27.89c-1.41-5.47-2.82-12.45-4.24-18.18h-.35c-1.24,5.83-2.65,12.71-4.06,18.18l-6.53,27.89H145.04Zm-4.94,33.46h28.07v11.74H157.58V268.07Z" fill="#504f4f"/>
            <path id="Tracé_9" data-name="Tracé 9" d="M214.77,247.33H199.59V234.62h45.55v12.71H229.96V292H214.78V247.33Z" fill="#504f4f"/>
          </g>
        </g>
        <g id="Groupe_5" data-name="Groupe 5">
          <g id="Groupe_4" data-name="Groupe 4">
            <path id="Tracé_10" data-name="Tracé 10" d="M269.29,271.44l-17.37-36.26h10.95l6.28,14.76c1.69,4.29,3.32,8.3,5.14,12.69h.35c1.82-4.4,3.64-8.4,5.31-12.69l6.29-14.76H296.9l-17.37,36.26v21.47H269.29V271.44Z" fill="#504f4f"/>
            <path id="Tracé_11" data-name="Tracé 11" d="M300.83,263.81c0-18.68,10.42-29.69,25.46-29.69s25.46,11.07,25.46,29.69c0,18.68-10.42,30.15-25.46,30.15S300.83,282.49,300.83,263.81Zm40.4,0c0-12.96-5.86-20.8-14.94-20.8s-14.94,7.84-14.94,20.8,5.86,21.26,14.94,21.26S341.23,276.77,341.23,263.81Z" fill="#504f4f"/>
            <path id="Tracé_12" data-name="Tracé 12" d="M363.08,267.59V235.18h10.24v33.19c0,12.57,4.7,16.7,11.69,16.7,7.06,0,11.93-4.13,11.93-16.7V235.18h9.85v32.41c0,18.96-8.4,26.38-21.79,26.38S363.08,286.55,363.08,267.59Z" fill="#504f4f"/>
          </g>
        </g>
      </g>
      <g id="Groupe_7" data-name="Groupe 7" style="isolation: isolate">
        <path id="Tracé_13" data-name="Tracé 13" d="M233.612,317.359a.27.27,0,0,1,.292-.292h6.557s.121.034.121.24c0,.223-.121.257-.121.257h-6.334v5.854h5.167s.12.035.12.257-.12.258-.12.258h-5.167v3.948a.323.323,0,0,1-.292.12c-.223,0-.223-.12-.223-.12Z"/>
        <path id="Tracé_14" data-name="Tracé 14" d="M250.4,327.5s.121.035.121.241c0,.223-.121.257-.121.257h-6.952a.279.279,0,0,1-.292-.292v-10.35a.27.27,0,0,1,.292-.292h6.541s.12.034.12.24c0,.223-.12.257-.12.257h-6.335v5.717h5.442s.12.034.12.258-.12.256-.12.256h-5.442V327.5Z"/>
        <path id="Tracé_15" data-name="Tracé 15" d="M257.4,317.118l5.064,10.626a.376.376,0,0,1,.052.137c0,.069-.086.12-.292.12a.384.384,0,0,1-.292-.137l-1.116-2.352h-7.45l-1.116,2.352a.383.383,0,0,1-.291.137c-.206,0-.292-.051-.292-.12a.38.38,0,0,1,.051-.137l5.065-10.626a.318.318,0,0,1,.617,0Zm-3.811,7.914h6.987l-3.485-7.365Z"/>
        <path id="Tracé_16" data-name="Tracé 16" d="M266.5,317.564v10.317s-.035.12-.258.12-.257-.12-.257-.12V317.564h-3.708s-.12-.034-.12-.257c0-.206.12-.24.12-.24H270.2s.12.034.12.24c0,.223-.12.257-.12.257Z"/>
        <path id="Tracé_17" data-name="Tracé 17" d="M284.861,317.2s.07-.137.326-.137c.207,0,.276.068.276.12a.389.389,0,0,1-.086.172l-4.412,6.248v4.274s-.034.12-.257.12-.258-.12-.258-.12v-4.274l-4.411-6.248a.389.389,0,0,1-.086-.172c0-.052.068-.12.275-.12.257,0,.326.137.326.137l4.154,5.888Z"/>
        <path id="Tracé_18" data-name="Tracé 18" d="M286.4,322.56a5.438,5.438,0,1,1,10.866,0,5.435,5.435,0,1,1-10.866,0Zm10.368,0a4.929,4.929,0,1,0-4.926,5.081A4.942,4.942,0,0,0,296.773,322.56Z"/>
        <path id="Tracé_19" data-name="Tracé 19" d="M308.855,317.169s.035-.1.258-.1.257.1.257.1v7.3c0,1.94-1.8,3.691-4.651,3.691-2.936,0-4.618-1.751-4.618-3.691v-7.3s.034-.1.257-.1.258.1.258.1v7.3c0,1.717,1.425,3.193,4.1,3.193,2.592,0,4.136-1.476,4.136-3.193Z"/>
        <path id="Tracé_20" data-name="Tracé 20" d="M318.894,317.359a.27.27,0,0,1,.292-.292h6.557s.12.034.12.24c0,.223-.12.257-.12.257h-6.334v5.854h5.167s.12.035.12.257-.12.258-.12.258h-5.167v3.948a.323.323,0,0,1-.292.12c-.223,0-.223-.12-.223-.12Z"/>
        <path id="Tracé_21" data-name="Tracé 21" d="M328.951,327.881s-.034.12-.257.12-.257-.12-.257-.12V317.169s.034-.1.257-.1.257.1.257.1Z"/>
        <path id="Tracé_22" data-name="Tracé 22" d="M335.628,317.564v10.317s-.034.12-.258.12-.257-.12-.257-.12V317.564H331.4s-.12-.034-.12-.257c0-.206.12-.24.12-.24h7.931s.12.034.12.24c0,.223-.12.257-.12.257Z"/>
        <path id="Tracé_23" data-name="Tracé 23" d="M353.066,322.25a2.7,2.7,0,0,1,2.4,2.524c0,1.854-1.237,3.227-3.622,3.227H347.47a.279.279,0,0,1-.292-.292v-10.35a.27.27,0,0,1,.292-.292h3.21c2.557,0,4.086.686,4.086,2.78A2.42,2.42,0,0,1,353.066,322.25Zm-5.373-.154h3.794c1.992,0,2.7-1.013,2.7-2.283,0-1.785-1.253-2.249-3.5-2.249h-2.987Zm4.205.481h-4.205V327.5h3.914c2.352,0,3.3-1.064,3.3-2.66C354.9,323.418,353.8,322.577,351.9,322.577Z"/>
        <path id="Tracé_24" data-name="Tracé 24" d="M365.681,327.5s.12.035.12.241c0,.223-.12.257-.12.257h-6.952a.279.279,0,0,1-.292-.292v-10.35a.27.27,0,0,1,.292-.292h6.541s.12.034.12.24c0,.223-.12.257-.12.257h-6.335v5.717h5.441s.12.034.12.258-.12.256-.12.256h-5.441V327.5Z"/>
        <path id="Tracé_25" data-name="Tracé 25" d="M371.4,317.564v10.317s-.035.12-.258.12-.257-.12-.257-.12V317.564h-3.708s-.12-.034-.12-.257c0-.206.12-.24.12-.24H375.1s.12.034.12.24c0,.223-.12.257-.12.257Z"/>
        <path id="Tracé_26" data-name="Tracé 26" d="M380.4,317.564v10.317s-.034.12-.257.12-.257-.12-.257-.12V317.564h-3.708s-.121-.034-.121-.257c0-.206.121-.24.121-.24h7.93s.12.034.12.24c0,.223-.12.257-.12.257Z"/>
        <path id="Tracé_27" data-name="Tracé 27" d="M393.793,327.5s.12.035.12.241c0,.223-.12.257-.12.257h-6.952a.279.279,0,0,1-.292-.292v-10.35a.27.27,0,0,1,.292-.292h6.541s.12.034.12.24c0,.223-.12.257-.12.257h-6.335v5.717h5.441s.12.034.12.258-.12.256-.12.256h-5.441V327.5Z"/>
        <path id="Tracé_28" data-name="Tracé 28" d="M404.847,327.555c.05,0,.12.1.12.154,0,.1-.412.292-.79.292-1.614,0-2.283-2.7-4.137-3.742a8.294,8.294,0,0,1-1.613.155c-.4,0-.5-.121-.5-.258,0-.171.1-.189.308-.189,2.7,0,5.237-1.081,5.237-3.588,0-2.351-1.837-2.815-4.206-2.815h-2.112v10.317s-.034.12-.258.12-.257-.12-.257-.12V317.359a.27.27,0,0,1,.292-.292H399.3c2.575,0,4.72.755,4.72,3.278,0,2.009-1.493,3.244-3.381,3.777,1.734,1.047,2.3,3.485,3.742,3.485A2.575,2.575,0,0,0,404.847,327.555Z"/>
      </g>
    </g>
  </g>
</svg>
